<?xml version="1.0" encoding="UTF-8" standalone="no"?><!DOCTYPE svg PUBLIC "-//W3C//DTD SVG 1.1//EN" "http://www.w3.org/Graphics/SVG/1.1/DTD/svg11.dtd"><svg width="100%" height="100%" viewBox="0 0 1004 977" version="1.1" xmlns="http://www.w3.org/2000/svg" xmlns:xlink="http://www.w3.org/1999/xlink" xml:space="preserve" xmlns:serif="http://www.serif.com/" style="fill-rule:evenodd;clip-rule:evenodd;stroke-linejoin:round;stroke-miterlimit:2;"><g id="Calque-2" serif:id="Calque 2"><path d="M556.957,812.095l-13.902,0l-0,-205.507c-0,-1.031 -0.836,-1.865 -1.867,-1.865c-49.429,-0 -69.357,-40.555 -69.553,-40.965c-0.375,-0.788 -1.246,-1.211 -2.097,-1.017c-0.85,0.192 -1.454,0.947 -1.454,1.819l0,262.462l88.873,-0c4.114,-0 7.463,-3.348 7.463,-7.463c-0,-4.116 -3.349,-7.464 -7.463,-7.464" style="fill:#5a8ab5;fill-rule:nonzero;"/><path d="M350.445,817.68l-44.281,0l0,-221.569c0,-1.031 -0.836,-1.866 -1.865,-1.866c-49.43,-0 -69.358,-40.554 -69.554,-40.964c-0.375,-0.788 -1.246,-1.211 -2.097,-1.017c-0.85,0.192 -1.454,0.947 -1.454,1.818l-0,263.598l-13.901,0l0,14.927l133.152,-0c4.116,-0 7.464,-3.348 7.464,-7.463c-0,-4.116 -3.348,-7.464 -7.464,-7.464" style="fill:#5a8ab5;fill-rule:nonzero;"/><path d="M663.593,777.744l-13.902,-0l-0,-173.778c-0,-1.031 -0.836,-1.866 -1.867,-1.866c-49.429,0 -69.357,-40.554 -69.553,-40.964c-0.375,-0.788 -1.246,-1.211 -2.097,-1.018c-0.85,0.193 -1.453,0.948 -1.453,1.82l-0,230.732l88.872,0c4.114,0 7.463,-3.347 7.463,-7.463c0,-4.116 -3.349,-7.463 -7.463,-7.463" style="fill:#5a8ab5;fill-rule:nonzero;"/><path d="M779.114,796.742l-18.352,0l0,-28.658l11.342,-0c3.407,-0 6.179,-2.772 6.179,-6.179c-0,-3.407 -2.772,-6.177 -6.179,-6.177l-11.342,-0l0,-171.087l18.352,-0c4.115,-0 7.464,-3.348 7.464,-7.464c0,-4.115 -3.349,-7.463 -7.464,-7.463l-88.871,0l-0,241.955l88.871,-0c4.115,-0 7.464,-3.348 7.464,-7.464c0,-4.115 -3.349,-7.463 -7.464,-7.463" style="fill:#5a8ab5;fill-rule:nonzero;"/><path d="M441.181,778.844l-16.246,0l0,-190.218c0,-0.871 -0.603,-1.627 -1.452,-1.82c-0.86,-0.191 -1.726,0.233 -2.099,1.017c-0.195,0.41 -20.123,40.967 -69.552,40.967c-1.03,-0 -1.865,0.834 -1.865,1.865l-0,148.189l-19.977,0l0,14.927l111.191,-0c4.115,-0 7.461,-3.349 7.461,-7.465c-0,-4.116 -3.346,-7.462 -7.461,-7.462" style="fill:#5a8ab5;fill-rule:nonzero;"/><path d="M404.347,570.791c-0,12.767 -10.35,23.116 -23.116,23.116c-12.766,0 -23.115,-10.349 -23.115,-23.116c-0,-12.767 10.349,-23.116 23.115,-23.116c12.766,0 23.116,10.349 23.116,23.116" style="fill:#5a8ab5;fill-rule:nonzero;"/><path d="M634.037,407.053c-24.232,-17.883 -40.063,-56.019 -23.38,-59.442c16.319,-3.349 23.38,19.593 23.38,19.593c-0,0 7.06,-22.942 23.38,-19.593c16.681,3.423 0.852,41.559 -23.38,59.442" style="fill:#fd5200;fill-rule:nonzero;"/><path d="M493.475,370.394c2.792,-16.815 7.043,-33.037 18.787,-46.234c-1.06,17.554 -8.314,32.559 -18.787,46.234m-117.862,48.327c-18.058,21.645 -33.169,45.527 -51.156,67.225c-0.238,0.288 -0.661,0.422 -1.522,0.949c-3.229,-20.77 4.278,-37.652 16.624,-52.935c7.033,-8.702 15.363,-15.691 26.094,-19.698c4.085,-1.526 6.766,0.258 9.791,2.046c1.249,0.738 0.894,1.544 0.169,2.413m414.44,10.945c-2.943,-11.572 -9.884,-19.067 -21.42,-22.462c-7.628,-2.247 -15.342,-4.056 -23.178,-5.286c-8.321,-1.305 -15.743,0.438 -21.677,6.947c-3.435,3.767 -7.156,7.275 -10.725,10.921c-17.249,17.616 -33.593,36.144 -52.561,52.025c-1.216,1.018 -2.22,2.432 -4.363,2.769c0.874,-4.907 1.822,-9.471 2.479,-14.078c1.202,-8.426 2.407,-16.871 -1.328,-25.071c-1.691,-3.715 -4.182,-6.086 -8.376,-7.002c-8.5,-1.857 -17.063,-2.669 -25.74,-2.617c-7.17,0.043 -13.712,1.803 -19.255,6.619c-7.379,6.413 -15.015,12.516 -22.067,19.32c-7.831,7.554 -16.367,14.315 -25.877,21.931c0.233,-2.798 0.297,-4.337 0.495,-5.859c1.875,-14.315 -2.139,-26.146 -13.908,-35.243c-7.31,-5.649 -14.901,-10.833 -22.74,-15.656c-2.915,-1.793 -3.191,-3.371 -1.804,-6.377c3.846,-8.339 7.427,-16.805 10.925,-25.298c8.231,-19.986 16.704,-39.908 21.456,-61.098c2.091,-9.322 3.184,-18.919 -0.389,-28.055c-7.13,-18.243 -26.214,-24.953 -43.227,-15.581c-1.857,1.023 -3.67,2.167 -5.353,3.453c-20.059,15.332 -33.54,35.462 -42.431,58.802c-9.594,25.182 -5.605,47.786 13.696,67.095c2.15,2.151 1.127,3.754 0.313,5.616c-7.055,16.116 -15.841,31.291 -25.392,46.026c-5.285,8.152 -12.112,14.957 -19.747,20.939c-3.701,2.899 -3.824,2.849 -4.825,-1.606c-1.956,-8.702 -1.646,-17.431 -0.14,-26.156c2.032,-11.773 8.102,-21.982 12.73,-32.751c5.985,-13.931 2.505,-21.319 -11.999,-25.609c-0.136,-0.04 -0.262,-0.115 -0.399,-0.148c-14.302,-3.478 -28.024,-4.73 -37.529,9.897c-1.404,2.16 -2.907,0.843 -4.4,0.286c-14.459,-5.396 -29.329,-6.699 -44.275,-3.037c-25.108,6.152 -52.868,38.458 -56.224,64.979c-1.654,13.06 1.491,24.679 12.535,32.75c6.772,4.949 14.995,6.248 23.303,6.848c18.374,1.325 34.281,-2.965 45.481,-18.895c3.223,-4.585 6.87,-8.872 10.354,-13.335c1.485,1.385 1.591,3.031 2.133,4.453c5.62,14.735 16.442,23.953 31.617,26.694c20.437,3.691 39.799,0.061 56.857,-12.582c16.912,-12.536 28.233,-29.592 38.293,-47.639c1.201,-2.154 2.261,-4.384 3.928,-7.633c0.886,5.324 0.323,9.338 -0.138,13.336c-1.04,9.003 -3.479,17.786 -4.212,26.842c-0.963,11.88 3.398,20.843 13.526,24.402c18.013,6.331 36.114,6.787 53.625,-2.181c9.303,-4.764 17.051,-11.653 24.755,-18.575c2.029,-1.824 4.132,-3.568 6.683,-5.763c0.231,1.797 0.338,2.75 0.478,3.699c2.062,13.969 7.012,28.134 27.823,31.423c19.605,3.099 36.939,0.722 51.973,-13.599c17.755,-16.913 35.89,-33.425 53.041,-50.967c1.138,-1.163 1.953,-2.774 4.073,-3.38c-1.524,14.548 -3.252,28.811 -6.895,42.798c-0.676,2.594 -2.287,2.386 -4.137,2.311c-6.654,-0.268 -13.306,-0.572 -19.963,-0.78c-2.345,-0.073 -5.143,-0.655 -6.01,2.525c-0.765,2.807 1.528,4.028 3.407,5.254c13.907,9.067 29.275,13.456 45.787,13.592c21.771,0.179 36.191,-10.712 41.193,-31.886c3.781,-16.003 3.843,-32.23 -0.255,-48.347" style="fill:#fd5200;fill-rule:nonzero;"/><path d="M419.953,261.96c-26.3,46.327 -62.219,82.89 -110.212,106.938c-8.243,4.129 -16.932,7.151 -25.909,9.355c-2.87,0.705 -4.236,0.961 -3.096,-2.899c20.295,-68.732 55.132,-128.433 109.225,-176.256c12.401,-10.964 26.241,-19.142 42.441,-23.194c3.874,-0.97 5.531,-0.236 6.352,3.846c1.123,5.59 1.674,11.18 1.858,16.201c-1.085,24.266 -9.154,45.744 -20.659,66.009m20.165,-108.227c-19.965,-12.13 -41.845,-12.02 -63.768,-6.534c-28.025,7.015 -50.942,23.143 -71.51,42.593c-29.065,27.485 -49.854,60.782 -65.401,97.378c-20.051,47.197 -28.655,96.697 -28.687,150.485c-0.226,16.77 1.78,36.052 4.037,55.33c1.23,10.498 6.069,18.032 16.61,20.564c7.873,1.892 16.032,2.081 24.103,1.064c5.35,-0.674 6.485,-2.346 5.865,-7.748c-1.019,-8.906 -0.943,-17.851 -0.268,-26.733c2.085,-27.438 6.641,-54.496 13.136,-81.241c0.774,-3.189 1.835,-4.372 5.346,-3.889c36.7,5.05 68.962,-6.084 98.882,-26.667c32.833,-22.589 57.769,-51.927 76.603,-86.759c10.118,-18.714 18.32,-38.156 19.59,-59.635c1.729,-29.235 -9.144,-52.781 -34.538,-68.208" style="fill:#fd5200;fill-rule:nonzero;"/></g></svg>